<svg width="43" height="43" viewBox="0 0 43 43" fill="none" xmlns="http://www.w3.org/2000/svg">
<g clip-path="url(#clip0_5_50)">
<path d="M40.3845 11.5038C40.1717 10.6535 39.7383 9.87441 39.128 9.24524C38.5177 8.61607 37.7521 8.15909 36.9087 7.92047C33.827 7.16797 21.5004 7.16797 21.5004 7.16797C21.5004 7.16797 9.17371 7.16797 6.09204 7.99214C5.24861 8.23076 4.48308 8.68773 3.87279 9.31691C3.26249 9.94608 2.82904 10.7252 2.61621 11.5755C2.05222 14.7029 1.77634 17.8755 1.79204 21.0534C1.77194 24.2552 2.04783 27.452 2.61621 30.603C2.85084 31.4269 3.29401 32.1763 3.90288 32.7789C4.51176 33.3815 5.26576 33.8169 6.09204 34.043C9.17371 34.8671 21.5004 34.8671 21.5004 34.8671C21.5004 34.8671 33.827 34.8671 36.9087 34.043C37.7521 33.8043 38.5177 33.3474 39.128 32.7182C39.7383 32.089 40.1717 31.3099 40.3845 30.4596C40.9442 27.3557 41.22 24.2073 41.2087 21.0534C41.2288 17.8516 40.9529 14.6548 40.3845 11.5038Z" stroke="#1E1E1E" stroke-width="4" stroke-linecap="round" stroke-linejoin="round"/>
<path d="M17.4691 26.9121L27.7712 21.0534L17.4691 15.1946V26.9121Z" stroke="#1E1E1E" stroke-width="4" stroke-linecap="round" stroke-linejoin="round"/>
</g>
<defs>
<clipPath id="clip0_5_50">
<rect width="43" height="43" fill="white"/>
</clipPath>
</defs>
</svg>
